<?xml version="1.0" standalone="no"?>
<!DOCTYPE svg PUBLIC "-//W3C//DTD SVG 20010904//EN"
 "http://www.w3.org/TR/2001/REC-SVG-20010904/DTD/svg10.dtd">
<svg version="1.0" xmlns="http://www.w3.org/2000/svg"
 width="340.000000pt" height="340.000000pt" viewBox="0 0 340.000000 340.000000"
 preserveAspectRatio="xMidYMid meet">
<metadata>
Created by potrace 1.14, written by Peter Selinger 2001-2017
</metadata>
<g transform="translate(0.000000,340.000000) scale(0.100000,-0.100000)"
fill="#000000" stroke="none">
<path d="M0 1700 l0 -1700 1700 0 1700 0 0 1700 0 1700 -1700 0 -1700 0 0
-1700z m2025 840 c175 -39 344 -144 458 -287 84 -105 85 -108 45 -151 -32 -35
-502 -523 -683 -710 -49 -51 -91 -97 -93 -102 -5 -15 102 -22 163 -11 120 22
152 46 385 285 119 122 244 251 280 289 35 37 67 64 71 60 4 -5 12 -38 18 -74
35 -206 -17 -448 -134 -624 -49 -73 -164 -192 -228 -234 -250 -167 -592 -186
-844 -47 l-41 24 -58 -59 -58 -59 -288 0 c-158 0 -288 3 -288 7 0 4 90 98 200
208 l201 201 -36 77 c-58 125 -79 222 -79 367 0 95 6 145 22 207 84 326 329
569 642 637 96 21 239 19 345 -4z"/>
<path d="M1755 2116 c-160 -40 -277 -162 -311 -328 -15 -71 -12 -188 5 -188 4
0 43 37 87 83 44 45 155 161 248 257 l169 175 -39 7 c-56 10 -102 8 -159 -6z"/>
</g>
</svg>
